<svg width="156" height="40" viewBox="0 0 156 40" fill="none" xmlns="http://www.w3.org/2000/svg">
<path fill-rule="evenodd" clip-rule="evenodd" d="M15.4565 13.1293L18.4904 11.379L21.5632 9.62866C22.0689 9.31749 22.6134 9.55087 22.9246 9.93983L30.8594 20.4418C31.1705 20.9085 30.9372 21.5309 30.4315 21.8809L25.9196 24.4092L21.4076 26.9763C20.902 27.2875 20.2018 27.1708 20.0463 26.6651L14.9898 14.4907C14.8342 13.985 14.9509 13.4016 15.4565 13.1293ZM17.2457 13.4794L20.9798 11.379C21.2131 11.2234 21.5243 11.3401 21.7188 11.6124C21.8744 11.8457 21.7577 12.1958 21.4854 12.3514L17.8292 14.4518C17.5958 14.6074 17.2457 14.4907 17.0902 14.2184C16.9346 13.985 17.0513 13.635 17.2457 13.4794Z" fill="#1E40AF"/>
<path fill-rule="evenodd" clip-rule="evenodd" d="M15.4565 13.1293L18.4904 11.3789L19.0738 12.4291L17.2457 13.4793C17.0123 13.6349 16.9345 13.985 17.0512 14.2184C17.2068 14.4906 17.5569 14.5684 17.7902 14.4517L19.6183 13.4015L25.9584 24.4091L21.4465 26.9763C20.9408 27.2874 20.2407 27.1707 20.0851 26.6651L15.0286 14.4906C14.8341 13.985 14.9508 13.4015 15.4565 13.1293Z" fill="#3B82F6"/>
<path fill-rule="evenodd" clip-rule="evenodd" d="M20.2787 18.2247L21.8735 17.2912L23.4682 16.3577C23.7405 16.1632 23.9739 16.1632 24.0517 16.2799L26.152 18.2636C26.2298 18.3414 26.0743 18.5748 25.802 18.7693L23.4682 20.0917L21.1344 21.4142C20.8622 21.6087 20.551 21.6476 20.551 21.492L19.8898 18.6526C19.8898 18.5359 20.0065 18.3414 20.2787 18.2247Z" fill="#1D4ED8"/>
<path fill-rule="evenodd" clip-rule="evenodd" d="M20.2787 18.2248L21.8735 17.2913L23.4682 20.0918L21.1344 21.4142C20.8622 21.6087 20.551 21.6476 20.551 21.492L19.8898 18.6526C19.8898 18.5359 20.0065 18.3415 20.2787 18.2248Z" fill="#60A5FA"/>
<path fill-rule="evenodd" clip-rule="evenodd" d="M23.7407 24.2534L25.3355 23.3199L26.9302 22.3864C27.2025 22.2308 27.358 22.0752 27.2803 21.9196L26.619 19.0802C26.619 18.9246 26.3079 19.0024 26.0356 19.158L23.7018 20.4805L21.3681 21.8029C21.0958 21.9974 20.9013 22.2308 21.018 22.3086L23.1184 24.2923C23.2351 24.409 23.4684 24.409 23.7407 24.2534Z" fill="#1D4ED8"/>
<path fill-rule="evenodd" clip-rule="evenodd" d="M23.7414 24.2535L25.3362 23.32L23.7414 20.5194L21.4077 21.8419C21.1354 22.0364 20.9409 22.2698 21.0576 22.3476L23.158 24.3313C23.2358 24.409 23.4692 24.4091 23.7414 24.2535Z" fill="#60A5FA"/>
<path fill-rule="evenodd" clip-rule="evenodd" d="M22.0287 18.847L23.1956 18.1857C23.2345 18.1468 23.2734 18.1857 23.2734 18.2246L23.7402 18.9636C23.7402 19.0025 23.7402 19.0414 23.7013 19.1192L22.6122 19.7805C22.5733 19.7805 22.4566 19.7805 22.4566 19.7416L21.9898 19.0025C21.9898 18.9637 21.9898 18.847 22.0287 18.847Z" fill="#1E40AF"/>
<path fill-rule="evenodd" clip-rule="evenodd" d="M21.9522 18.1468L22.6134 17.7968C22.6523 17.7579 22.6912 17.7579 22.769 17.7968C22.8079 17.7968 22.8468 17.8357 22.8468 17.8357L23.1579 18.4191C23.1968 18.458 23.1968 18.4969 23.1968 18.5747C23.1968 18.6136 23.1579 18.6525 23.119 18.7303L22.4578 19.0415C22.4189 19.0804 22.38 19.0804 22.3022 19.0804C22.2633 19.0415 22.2633 19.0415 22.2244 19.0026L22.1466 18.847L22.38 18.6914L22.4189 18.7692L22.9246 18.4969L22.6523 18.0302L22.1466 18.3024L22.1855 18.3802L21.991 18.458L21.9133 18.3024C21.8744 18.2635 21.8744 18.2246 21.8744 18.1468C21.9133 18.1857 21.9133 18.1468 21.9522 18.1468Z" fill="#1E40AF"/>
<path fill-rule="evenodd" clip-rule="evenodd" d="M23.9358 22.0754L25.0249 21.4142C25.0638 21.4142 25.1027 21.4142 25.1805 21.4531L25.6084 22.1921C25.6473 22.231 25.6084 22.2699 25.5695 22.3477L24.4804 23.009C24.4415 23.0478 24.4026 23.009 24.3248 22.9701L23.8969 22.231C23.8192 22.1921 23.897 22.1143 23.9358 22.0754Z" fill="#1E40AF"/>
<path fill-rule="evenodd" clip-rule="evenodd" d="M23.78 21.3363L24.4412 20.9862C24.4801 20.9862 24.519 20.9862 24.5968 20.9862C24.6357 20.9862 24.6746 21.0251 24.7524 21.064L25.0636 21.6474C25.0636 21.6863 25.0636 21.7252 25.0636 21.803C25.0636 21.8419 25.0247 21.8419 24.9858 21.8808L24.7524 22.0364L24.5968 21.8419L24.7913 21.6863L24.5579 21.2196L24.0523 21.4919L24.4023 22.192L24.169 22.3476L23.7411 21.6085C23.7022 21.5696 23.7022 21.5307 23.7411 21.453C23.7411 21.453 23.78 21.3752 23.78 21.3363Z" fill="#1E40AF"/>
<path fill-rule="evenodd" clip-rule="evenodd" d="M15.8069 5C15.8847 5 15.9625 5 16.0014 5C15.8458 5.07779 15.6903 5.27227 15.4569 5.54455C13.2398 5.73903 11.4506 7.60604 11.4506 9.90091C11.4506 12.2736 13.4343 14.2573 15.8069 14.2573C17.3628 14.2573 18.7631 13.4404 19.541 12.1958L20.3967 11.6901C19.6577 13.5182 17.9073 14.8018 15.8069 14.8018C13.0842 14.8018 10.906 12.5847 10.906 9.90091C10.906 7.21708 13.0842 5 15.8069 5ZM20.1633 10.4066C20.1633 10.251 20.1633 10.0954 20.1633 9.90091C20.1633 9.47305 20.1244 9.12298 20.0077 8.73402L20.5523 8.69513C20.6301 9.12298 20.7079 9.47305 20.7079 9.90091C20.7079 9.9398 20.7079 10.0565 20.7079 10.0954L20.1633 10.4066Z" fill="#B3B3B3"/>
<path fill-rule="evenodd" clip-rule="evenodd" d="M13.1236 22.5035H14.9128H16.702V34.3668L14.9128 35.5726L13.1236 34.3668V22.5035Z" fill="#BFDAE1"/>
<path fill-rule="evenodd" clip-rule="evenodd" d="M13.1236 22.5035H14.9128V35.5726L13.1236 34.3668V22.5035Z" fill="white"/>
<path fill-rule="evenodd" clip-rule="evenodd" d="M11.9165 26.5874L13.1222 25.5761V27.5987L11.9165 26.5874Z" fill="white"/>
<path fill-rule="evenodd" clip-rule="evenodd" d="M11.9165 26.5874L13.1222 25.5761V26.5874H11.9165Z" fill="#BFDAE1"/>
<path fill-rule="evenodd" clip-rule="evenodd" d="M11.9165 28.8045L13.1222 27.7932V29.8157L11.9165 28.8045Z" fill="white"/>
<path fill-rule="evenodd" clip-rule="evenodd" d="M11.9165 28.8045L13.1222 27.7932V28.8045H11.9165Z" fill="#BFDAE1"/>
<path fill-rule="evenodd" clip-rule="evenodd" d="M11.9165 30.9827L13.1222 29.9714V31.994L11.9165 30.9827Z" fill="white"/>
<path fill-rule="evenodd" clip-rule="evenodd" d="M11.9165 30.9827L13.1222 29.9714V30.9827H11.9165Z" fill="#BFDAE1"/>
<path fill-rule="evenodd" clip-rule="evenodd" d="M14.9122 12.6628C18.1795 12.6628 20.8244 17.4859 20.8244 19.8197C20.8244 22.1923 18.1406 24.0982 14.9122 24.0982C11.6449 24.0982 9 22.2312 9 19.8197C9 17.4859 11.6449 12.6628 14.9122 12.6628ZM14.9122 13.9075C16.3514 13.9075 17.4793 14.841 17.4793 15.3466C17.4793 15.8134 16.3125 16.1634 14.9122 16.1634C13.4731 16.1634 12.3062 15.8134 12.3062 15.3466C12.3062 14.841 13.5119 13.9075 14.9122 13.9075Z" fill="#AC6730"/>
<path fill-rule="evenodd" clip-rule="evenodd" d="M20.7855 20.2472C20.5132 22.4254 17.985 24.0979 14.9122 24.0979C11.8394 24.0979 9.27227 22.3865 9 20.2472C9.27227 17.7579 11.8394 13.4404 14.9122 13.4404C17.985 13.4404 20.5132 17.7579 20.7855 20.2472ZM14.9122 13.9072C16.3514 13.9072 17.4793 14.8407 17.4793 15.3463C17.4793 15.8131 16.3125 16.1631 14.9122 16.1631C13.4731 16.1631 12.3062 15.8131 12.3062 15.3463C12.3062 14.8407 13.5119 13.9072 14.9122 13.9072Z" fill="#BF8849"/>
<path fill-rule="evenodd" clip-rule="evenodd" d="M14.9122 24.0979C11.8394 24.0979 9.27227 22.3865 9 20.2472C9.27227 17.7579 11.8394 13.4404 14.9122 13.4404V13.9072C13.4731 13.9072 12.3062 14.8407 12.3062 15.3463C12.3062 15.8131 13.5119 16.1631 14.9122 16.1631V24.0979Z" fill="#CB9F52"/>
<path fill-rule="evenodd" clip-rule="evenodd" d="M15.8058 5C15.8836 5 15.9614 5 16.0003 5C15.8447 5.07779 15.6891 5.27227 15.4558 5.54455C13.7054 5.73903 12.2274 6.90591 11.6828 8.57844H11.0994C11.6439 6.51695 13.5499 5 15.8058 5ZM15.4169 14.2573C15.5724 14.2573 15.6891 14.2573 15.7669 14.2573C17.3228 14.2573 18.723 13.4404 19.501 12.1958L20.3567 11.6901C19.6176 13.5182 17.8673 14.8018 15.7669 14.8018C15.6891 14.8018 15.5336 14.8018 15.4169 14.8018V14.2573ZM20.1622 10.4066C20.1622 10.251 20.1622 10.0954 20.1622 9.90091C20.1622 9.47305 20.1233 9.12298 20.0066 8.73402L20.5512 8.69513C20.6289 9.12298 20.7067 9.47305 20.7067 9.90091C20.7067 9.9398 20.7067 10.0565 20.7067 10.0954L20.1622 10.4066Z" fill="#B3B3B3"/>
<path d="M45.246 27V12.4545H48.3213V18.8679H48.5131L53.7475 12.4545H57.4335L52.0358 18.9673L57.4975 27H53.8185L49.8341 21.0199L48.3213 22.8665V27H45.246ZM63.1491 27.2131C62.0269 27.2131 61.061 26.9858 60.2514 26.5312C59.4464 26.072 58.8262 25.4233 58.3906 24.5852C57.955 23.7424 57.7372 22.7457 57.7372 21.5952C57.7372 20.473 57.955 19.4882 58.3906 18.6406C58.8262 17.7931 59.4393 17.1326 60.2301 16.6591C61.0255 16.1856 61.9583 15.9489 63.0284 15.9489C63.7481 15.9489 64.418 16.0649 65.0383 16.2969C65.6633 16.5241 66.2078 16.8674 66.6718 17.3267C67.1406 17.786 67.5052 18.3636 67.7656 19.0597C68.026 19.7509 68.1562 20.5606 68.1562 21.4886V22.3196H58.9446V20.4446H65.3082C65.3082 20.009 65.2135 19.6231 65.0241 19.2869C64.8347 18.9508 64.5719 18.688 64.2357 18.4986C63.9043 18.3045 63.5184 18.2074 63.0781 18.2074C62.6188 18.2074 62.2116 18.3139 61.8565 18.527C61.5061 18.7353 61.2315 19.017 61.0326 19.3722C60.8338 19.7225 60.732 20.1132 60.7272 20.544V22.3267C60.7272 22.8665 60.8267 23.3329 61.0255 23.7259C61.2291 24.1188 61.5156 24.4219 61.8849 24.6349C62.2542 24.848 62.6922 24.9545 63.1988 24.9545C63.535 24.9545 63.8428 24.9072 64.1221 24.8125C64.4015 24.7178 64.6406 24.5758 64.8394 24.3864C65.0383 24.197 65.1898 23.965 65.294 23.6903L68.0923 23.875C67.9502 24.5473 67.659 25.1345 67.2187 25.6364C66.7831 26.1335 66.2196 26.5218 65.5284 26.8011C64.8418 27.0758 64.0487 27.2131 63.1491 27.2131ZM71.7056 31.0909C71.322 31.0909 70.9622 31.0601 70.626 30.9986C70.2946 30.9418 70.02 30.8684 69.8022 30.7784L70.484 28.5199C70.8391 28.6288 71.1587 28.688 71.4428 28.6974C71.7316 28.7069 71.9802 28.6406 72.1885 28.4986C72.4016 28.3565 72.5744 28.1151 72.707 27.7741L72.8845 27.3125L68.9712 16.0909H72.153L74.4115 24.1023H74.5252L76.805 16.0909H80.0081L75.7681 28.179C75.5645 28.7661 75.2875 29.2775 74.9371 29.7131C74.5915 30.1534 74.1535 30.492 73.6232 30.7287C73.0929 30.9702 72.4537 31.0909 71.7056 31.0909ZM80.3757 14.9901V12.4545H92.3217V14.9901H87.8686V27H84.8288V14.9901H80.3757ZM97.5791 27.2131C96.4759 27.2131 95.5219 26.9787 94.7169 26.5099C93.9167 26.0365 93.2988 25.3783 92.8632 24.5355C92.4276 23.688 92.2098 22.7055 92.2098 21.5881C92.2098 20.4612 92.4276 19.4763 92.8632 18.6335C93.2988 17.786 93.9167 17.1278 94.7169 16.6591C95.5219 16.1856 96.4759 15.9489 97.5791 15.9489C98.6824 15.9489 99.6341 16.1856 100.434 16.6591C101.239 17.1278 101.859 17.786 102.295 18.6335C102.731 19.4763 102.948 20.4612 102.948 21.5881C102.948 22.7055 102.731 23.688 102.295 24.5355C101.859 25.3783 101.239 26.0365 100.434 26.5099C99.6341 26.9787 98.6824 27.2131 97.5791 27.2131ZM97.5933 24.8693C98.0952 24.8693 98.5143 24.7273 98.8505 24.4432C99.1866 24.1544 99.4399 23.7614 99.6104 23.2642C99.7856 22.767 99.8732 22.2012 99.8732 21.5668C99.8732 20.9323 99.7856 20.3665 99.6104 19.8693C99.4399 19.3722 99.1866 18.9792 98.8505 18.6903C98.5143 18.4015 98.0952 18.2571 97.5933 18.2571C97.0867 18.2571 96.6606 18.4015 96.3149 18.6903C95.974 18.9792 95.716 19.3722 95.5408 19.8693C95.3703 20.3665 95.2851 20.9323 95.2851 21.5668C95.2851 22.2012 95.3703 22.767 95.5408 23.2642C95.716 23.7614 95.974 24.1544 96.3149 24.4432C96.6606 24.7273 97.0867 24.8693 97.5933 24.8693Z" fill="#0F172A"/>
<path d="M110.129 27H104.973V12.4545H110.171C111.635 12.4545 112.894 12.7457 113.95 13.3281C115.006 13.9058 115.818 14.7367 116.386 15.821C116.959 16.9053 117.245 18.2027 117.245 19.7131C117.245 21.2282 116.959 22.5303 116.386 23.6193C115.818 24.7083 115.001 25.544 113.936 26.1264C112.875 26.7088 111.606 27 110.129 27ZM108.048 24.3651H110.001C110.91 24.3651 111.675 24.2041 112.295 23.8821C112.92 23.5554 113.389 23.0511 113.701 22.3693C114.019 21.6828 114.177 20.7973 114.177 19.7131C114.177 18.6383 114.019 17.7599 113.701 17.0781C113.389 16.3963 112.922 15.8944 112.302 15.5724C111.682 15.2505 110.917 15.0895 110.008 15.0895H108.048V24.3651ZM119.467 27V16.0909H122.4V17.9943H122.513C122.712 17.3172 123.046 16.8059 123.515 16.4602C123.984 16.1098 124.523 15.9347 125.134 15.9347C125.286 15.9347 125.449 15.9441 125.624 15.9631C125.799 15.982 125.953 16.008 126.086 16.0412V18.7259C125.944 18.6832 125.747 18.6454 125.496 18.6122C125.245 18.5791 125.016 18.5625 124.807 18.5625C124.362 18.5625 123.965 18.6596 123.614 18.8537C123.269 19.0431 122.994 19.3082 122.79 19.6491C122.592 19.9901 122.492 20.383 122.492 20.8281V27H119.467ZM127.65 27V16.0909H130.676V27H127.65ZM129.17 14.6847C128.72 14.6847 128.334 14.5355 128.012 14.2372C127.695 13.9342 127.537 13.572 127.537 13.1506C127.537 12.7339 127.695 12.3764 128.012 12.0781C128.334 11.7751 128.72 11.6236 129.17 11.6236C129.62 11.6236 130.003 11.7751 130.321 12.0781C130.643 12.3764 130.804 12.7339 130.804 13.1506C130.804 13.572 130.643 13.9342 130.321 14.2372C130.003 14.5355 129.62 14.6847 129.17 14.6847ZM143.27 16.0909L139.456 27H136.047L132.233 16.0909H135.429L137.695 23.8963H137.808L140.067 16.0909H143.27ZM149.438 27.2131C148.316 27.2131 147.35 26.9858 146.54 26.5312C145.736 26.072 145.115 25.4233 144.68 24.5852C144.244 23.7424 144.026 22.7457 144.026 21.5952C144.026 20.473 144.244 19.4882 144.68 18.6406C145.115 17.7931 145.728 17.1326 146.519 16.6591C147.315 16.1856 148.247 15.9489 149.317 15.9489C150.037 15.9489 150.707 16.0649 151.327 16.2969C151.952 16.5241 152.497 16.8674 152.961 17.3267C153.43 17.786 153.794 18.3636 154.055 19.0597C154.315 19.7509 154.445 20.5606 154.445 21.4886V22.3196H145.234V20.4446H151.597C151.597 20.009 151.503 19.6231 151.313 19.2869C151.124 18.9508 150.861 18.688 150.525 18.4986C150.193 18.3045 149.807 18.2074 149.367 18.2074C148.908 18.2074 148.501 18.3139 148.146 18.527C147.795 18.7353 147.521 19.017 147.322 19.3722C147.123 19.7225 147.021 20.1132 147.016 20.544V22.3267C147.016 22.8665 147.116 23.3329 147.315 23.7259C147.518 24.1188 147.805 24.4219 148.174 24.6349C148.543 24.848 148.981 24.9545 149.488 24.9545C149.824 24.9545 150.132 24.9072 150.411 24.8125C150.691 24.7178 150.93 24.5758 151.129 24.3864C151.327 24.197 151.479 23.965 151.583 23.6903L154.381 23.875C154.239 24.5473 153.948 25.1345 153.508 25.6364C153.072 26.1335 152.509 26.5218 151.817 26.8011C151.131 27.0758 150.338 27.2131 149.438 27.2131Z" fill="#2563EB"/>
</svg>
